<svg width="150" height="20" viewBox="0 0 150 20" fill="none" xmlns="http://www.w3.org/2000/svg">
<path d="M17.0701 0H2.92965C1.31438 0 0 1.31438 0 2.92965V17.0701C0 18.6854 1.31438 19.9998 2.92965 19.9998H8.82802V12.9295H6.4843V9.41395H8.82802V7.03116C8.82802 5.09256 10.405 3.51558 12.3436 3.51558H15.8982V7.03116H12.3436V9.41395H15.8982L15.3123 12.9295H12.3436V19.9998H17.0701C18.6854 19.9998 19.9998 18.6854 19.9998 17.0701V2.92965C19.9998 1.31438 18.6854 0 17.0701 0Z" fill="white"/>
<path d="M83.8988 1.10016C83.1656 0.366766 82.2822 0 81.2493 0H68.7492C67.7163 0 66.8329 0.366766 66.0994 1.10016C65.366 1.83369 64.9992 2.71704 64.9992 3.74998V16.25C64.9992 17.2828 65.366 18.1662 66.0994 18.8998C66.8329 19.6333 67.7163 20.0001 68.7492 20.0001H81.2492C82.2821 20.0001 83.1655 19.6333 83.8987 18.8998C84.6322 18.1662 84.999 17.2828 84.999 16.25V3.74998C84.9989 2.71704 84.6322 1.83356 83.8988 1.10016ZM80.2987 7.69539C80.3074 7.77351 80.3118 7.89049 80.3118 8.04702C80.3118 8.77622 80.2054 9.50756 79.9928 10.2409C79.7802 10.9745 79.4546 11.6776 79.0161 12.3503C78.578 13.023 78.055 13.6178 77.4474 14.1342C76.8397 14.6505 76.1106 15.063 75.2598 15.3709C74.4093 15.6793 73.4977 15.8335 72.5255 15.8335C71.0152 15.8335 69.6177 15.4253 68.3329 14.6096C68.5412 14.6355 68.7584 14.6486 68.9839 14.6486C70.2427 14.6486 71.3755 14.258 72.3825 13.4765C71.7923 13.4681 71.2648 13.286 70.8005 12.9297C70.336 12.5738 70.0127 12.1225 69.8304 11.5756C70.056 11.6102 70.2252 11.6274 70.3381 11.6274C70.529 11.6274 70.7504 11.5928 71.0021 11.5235C70.3684 11.4018 69.8347 11.0874 69.4006 10.5796C68.9665 10.0717 68.7495 9.49233 68.7495 8.84134V8.8153C69.2094 9.03216 69.6435 9.14499 70.0515 9.15379C69.2616 8.62416 68.8666 7.86473 68.8666 6.87516C68.8666 6.389 68.9924 5.92896 69.2442 5.49493C69.9298 6.337 70.7633 7.00965 71.7441 7.5131C72.725 8.0165 73.7754 8.29876 74.8951 8.35946C74.8518 8.19455 74.8301 7.98613 74.8301 7.73447C74.8301 6.97914 75.097 6.33472 75.6309 5.80081C76.1646 5.26694 76.8092 4.99992 77.5644 4.99992C78.3631 4.99992 79.0274 5.28646 79.5568 5.85941C80.1558 5.74658 80.7376 5.52512 81.3017 5.19539C81.0848 5.86361 80.6809 6.37148 80.0909 6.71873C80.6549 6.64047 81.1799 6.49298 81.666 6.27598C81.3014 6.83151 80.8455 7.30459 80.2987 7.69539Z" fill="white"/>
<path d="M141.911 10.0143C141.911 11.0198 141.096 11.8351 140.09 11.8351C139.085 11.8351 138.269 11.0198 138.269 10.0143C138.269 9.00875 139.085 8.1935 140.09 8.1935C141.096 8.1935 141.911 9.00875 141.911 10.0143Z" fill="white"/>
<path d="M143.144 4.55195H137.039C135.71 4.55195 134.629 5.63293 134.629 6.96181V13.0668C134.629 14.3957 135.71 15.4767 137.039 15.4767H143.144C144.473 15.4767 145.554 14.3957 145.554 13.0668V6.96181C145.554 5.63293 144.473 4.55195 143.144 4.55195ZM140.091 13.0266C138.43 13.0266 137.079 11.6753 137.079 10.0143C137.079 8.35328 138.43 7.00197 140.091 7.00197C141.752 7.00197 143.104 8.35328 143.104 10.0143C143.104 11.6753 141.752 13.0266 140.091 13.0266ZM143.545 7.16263C143.213 7.16263 142.943 6.89293 142.943 6.56016C142.943 6.2274 143.213 5.9577 143.545 5.9577C143.878 5.9577 144.148 6.2274 144.148 6.56016C144.148 6.89293 143.878 7.16263 143.545 7.16263Z" fill="white"/>
<path d="M144.725 0H135.272C132.364 0 129.998 2.36569 129.998 5.27337V14.7264C129.998 17.6341 132.364 19.9998 135.272 19.9998H144.725C147.632 19.9998 149.998 17.6341 149.998 14.7264V5.27337C149.998 2.36569 147.632 0 144.725 0ZM146.483 12.9686C146.483 14.907 144.905 16.4842 142.967 16.4842H137.03C135.091 16.4842 133.514 14.907 133.514 12.9686V7.03116C133.514 5.09271 135.091 3.51558 137.03 3.51558H142.967C144.905 3.51558 146.483 5.09271 146.483 7.03116V12.9686Z" fill="white"/>
</svg>
