<svg width="12" height="11" viewBox="0 0 12 11" fill="none" xmlns="http://www.w3.org/2000/svg">
<path d="M0.014821 10.0201L0.247412 7.56879L6.90102 6.08149C7.31324 5.99645 7.90889 5.89764 8.69146 5.79244L8.70022 5.73407C7.89357 5.47981 7.32737 5.27543 6.99421 5.12439L0.744624 2.40692L0.97979 -0.000420716L11.0404 0.972858L10.883 2.60215L4.311 1.97127L2.51143 1.74012L2.50524 1.84249C2.93382 1.98489 3.27136 2.10674 3.51786 2.20803L10.614 5.34187L10.4764 6.76293L2.90994 8.44375C2.75524 8.48022 2.50512 8.52531 2.14129 8.57859L1.83628 8.62232L1.82706 8.69899L3.63283 8.82777L10.2049 9.45865L10.0606 11.0004L1.68281e-06 10.0271L0.014821 10.0201Z" fill="white"/>
</svg>
