<svg width="11" height="11" viewBox="0 0 11 11" fill="none" xmlns="http://www.w3.org/2000/svg">
<path d="M1.05361 1.81025C1.88862 0.801884 3.20473 0.212366 5.00197 0.0417023C6.81062 -0.12484 8.20773 0.205265 9.2161 1.04027C10.2245 1.87528 10.7999 3.14115 10.9619 4.81915C11.1199 6.50857 10.7871 7.85952 9.9521 8.86789C9.11709 9.87626 7.80097 10.4658 5.99597 10.6401C4.19096 10.8144 2.79022 10.4765 1.78185 9.64151C0.781244 8.80286 0.198073 7.54065 0.0364584 5.84346C-0.11786 4.16181 0.218609 2.81862 1.0422 1.80613L1.05361 1.81025ZM5.72796 8.89804L5.90887 8.87947C8.5298 8.62547 9.73691 7.31912 9.51101 4.95996C9.28874 2.60857 7.86349 1.5521 5.24303 1.78692L5.06212 1.80549C2.45672 2.0522 1.26515 3.35126 1.49106 5.71042C1.71285 8.081 3.13033 9.14111 5.72796 8.89804Z" fill="white"/>
</svg>
