<svg width="206" height="206" viewBox="0 0 206 206" fill="none" xmlns="http://www.w3.org/2000/svg">
<g clip-path="url(#clip0_734_4162)">
<path d="M176.186 132.814C192.652 92.3943 173.233 46.2797 132.814 29.8141C92.3938 13.3485 46.2792 32.7671 29.8136 73.1868C13.348 113.606 32.7666 159.721 73.1863 176.187C113.606 192.652 159.721 173.234 176.186 132.814Z" fill="#F47521"/>
<path d="M78.3985 103.215C78.0963 103.957 78.2573 104.666 78.8857 105.355L111.241 137.878C111.893 138.488 112.376 138.429 112.678 137.687L117.38 126.145C117.709 125.335 117.549 124.625 116.892 124.005L106.872 113.923L106.84 113.892L98.3914 105.562L98.3791 105.592L93.0842 100.329L83.4411 90.8147L78.394 103.204L78.3985 103.215Z" fill="white"/>
<path d="M97.0691 69.6205C98.3255 70.1323 99.6444 71.0755 101.023 72.4576L110.339 81.8209C111.717 83.2031 112.785 84.4588 113.561 85.5867C114.327 86.7191 114.832 87.8605 115.075 89.0185C115.321 90.1688 115.311 91.4086 115.053 92.7334C114.799 94.0505 114.319 95.5757 113.61 97.3164L107.539 112.219L99.0905 103.888L93.7864 98.6478L85.413 90.3922C84.6394 89.627 84.4008 88.4797 84.8108 87.4731L90.2186 74.1981C91.9359 69.9826 94.2189 68.4506 97.0722 69.6129L97.0691 69.6205Z" fill="white"/>
<path d="M63.0163 51.5552L67.0448 48.7929C67.9121 48.202 68.7269 47.978 69.5014 48.1346C70.2759 48.2913 70.9315 48.7613 71.4849 49.5692C72.0338 50.3663 72.235 51.1719 72.0949 51.9708C71.9548 52.7697 71.4511 53.4646 70.6052 54.0465L67.9591 55.863L70.0778 58.9586L68.7304 59.8834L63.0208 51.5658L63.0163 51.5552ZM69.7564 52.9242C70.1847 52.631 70.4313 52.2638 70.5008 51.8332C70.5703 51.4027 70.4442 50.9542 70.1268 50.4984C69.8126 50.0351 69.4471 49.7626 69.0409 49.6766C68.6347 49.5906 68.2031 49.6971 67.7504 50.0069L65.1531 51.7903L67.156 54.7152L69.7533 52.9318L69.7564 52.9242Z" fill="white"/>
<path d="M76.4607 53.4496C75.2979 53.0112 74.3558 52.0097 73.6449 50.4406C72.934 48.8714 72.7954 47.5002 73.2414 46.3405C73.6797 45.1778 74.6355 44.2612 76.1057 43.5982C77.579 42.9276 78.9046 42.8146 80.0673 43.253C81.23 43.6914 82.1722 44.6929 82.8831 46.262C83.594 47.8311 83.7325 49.2024 83.2866 50.362C82.8482 51.5247 81.8848 52.4383 80.4116 53.1088C78.9489 53.7749 77.634 53.8834 76.4682 53.4526L76.4607 53.4496ZM81.3924 47.0402L81.3176 46.8773C80.2697 44.5973 78.7216 43.9137 76.6714 44.8523C74.6275 45.7757 74.1134 47.3841 75.1369 49.6806L75.2118 49.8435C76.2369 52.1142 77.7837 52.7796 79.8383 51.8517C81.9036 50.9193 82.4252 49.314 81.3893 47.0477L81.3924 47.0402Z" fill="white"/>
<path d="M82.5178 40.8982L84.2016 40.534L87.4716 46.8254C87.5916 47.0508 87.8071 47.518 88.1214 48.2196L88.1898 48.2034L88.1418 46.6749L88.1816 39.6669L90.3122 39.2024L93.3117 45.5512C93.4421 45.8161 93.6394 46.2847 93.922 46.9558L93.9904 46.9395C93.9831 46.1777 93.9878 45.6678 94.0002 45.3992L94.3211 38.3293L95.8606 37.9946L95.2404 48.4635L93.2435 48.9031L90.1941 42.5251C90.0309 42.1674 89.8139 41.682 89.5569 41.0566L89.4885 41.0729C89.5339 41.8062 89.5564 42.3359 89.5527 42.6698L89.4518 49.7411L87.4549 50.1807L82.5313 40.9302L82.5178 40.8982Z" fill="white"/>
<path d="M98.1064 38.0272L105.933 37.8977L105.956 39.2925L99.7625 39.3989L99.8159 42.2356L105.362 42.1387L105.385 43.5335L99.8389 43.6304L99.8909 46.6872L106.173 46.5813L106.196 47.9761L98.2854 48.1157L98.114 38.0303L98.1064 38.0272Z" fill="white"/>
<path d="M108.802 38.0691L114.022 38.8807C115.057 39.0466 115.812 39.4247 116.27 40.0346C116.727 40.6446 116.888 41.3983 116.751 42.2959C116.647 42.9857 116.401 43.5472 116.012 43.9802C115.624 44.4133 115.126 44.7046 114.509 44.8327L116.06 49.4089L114.301 49.1337L112.873 44.8193L109.486 44.2955L108.863 48.295L107.253 48.045L108.809 38.0722L108.802 38.0691ZM113.202 43.4707C113.717 43.5484 114.14 43.4645 114.487 43.2179C114.827 42.9681 115.039 42.5779 115.12 42.0548C115.199 41.5576 115.117 41.1534 114.88 40.8453C114.644 40.5373 114.251 40.333 113.713 40.2461L110.21 39.7018L109.707 42.9296L113.21 43.4738L113.202 43.4707Z" fill="white"/>
<path d="M124.207 41.4761L130.925 44.0894L130.421 45.3928L125.225 43.3734L124.145 46.1544L128.838 47.9779L128.334 49.2813L123.649 47.4609L122.084 51.4741L120.561 50.8802L124.218 41.4716L124.207 41.4761Z" fill="white"/>
<path d="M133.329 45.3162L137.84 48.0628C138.736 48.6133 139.28 49.2496 139.473 49.9898C139.665 50.7301 139.525 51.485 139.05 52.262C138.685 52.8546 138.245 53.2843 137.719 53.5375C137.192 53.7906 136.625 53.8599 136.001 53.7466L135.679 58.566L134.16 57.6382L134.496 53.1073L131.57 51.3238L129.464 54.7812L128.072 53.9316L133.329 45.3162ZM135.32 51.9956C135.766 52.2655 136.19 52.3501 136.601 52.2526C137.011 52.155 137.353 51.8795 137.633 51.429C137.894 51.0057 137.972 50.5965 137.873 50.2119C137.774 49.8273 137.485 49.4977 137.019 49.211L133.993 47.3692L132.293 50.1538L135.32 51.9956Z" fill="white"/>
<path d="M137.731 58.793C137.664 57.5482 138.205 56.2859 139.353 55.0063C140.511 53.7222 141.702 53.0514 142.947 52.9849C144.192 52.9184 145.412 53.433 146.609 54.5029C147.81 55.5834 148.449 56.7439 148.515 57.9887C148.582 59.2336 148.041 60.4958 146.89 61.783C145.739 63.0702 144.541 63.7379 143.296 63.8044C142.054 63.8633 140.831 63.3563 139.623 62.2727C138.429 61.1952 137.797 60.0379 137.72 58.7975L137.731 58.793ZM145.578 60.7367L145.693 60.6069C147.363 58.7372 147.365 57.0436 145.684 55.5381C144.01 54.0357 142.331 54.2163 140.648 56.0723L140.534 56.202C138.869 58.0566 138.874 59.7351 140.555 61.2406C142.24 62.7567 143.917 62.5837 145.578 60.7367Z" fill="white"/>
<path d="M152.141 60.0924L153.605 62.0654L149.679 67.6313C149.434 67.9727 149.056 68.4453 148.548 69.0416L148.582 69.0904C149.35 68.7416 149.904 68.5084 150.248 68.4013L156.693 66.2265L158.136 68.1644L150.044 74.1866L149.067 72.8798L154.351 68.9433L155.84 67.9086L155.778 67.8217C155.367 68.0073 155.03 68.1433 154.78 68.2358L147.432 70.6781L146.582 69.5375L151.051 63.2223C151.14 63.0909 151.301 62.8916 151.532 62.6062L151.723 62.3752L151.678 62.3127L150.253 63.4267L144.97 67.3632L144.046 66.1221L152.141 60.0924Z" fill="white"/>
<path d="M161.614 74.0106L162.211 75.6215L156.439 79.7385C156.23 79.8829 155.805 80.1685 155.155 80.5742L155.178 80.6457L156.679 80.3835L163.627 79.4456L164.385 81.484L158.516 85.341C158.272 85.5063 157.838 85.7707 157.21 86.1416L157.234 86.213C157.985 86.104 158.5 86.0313 158.758 86.0042L165.807 85.337L166.353 86.8126L155.905 87.6569L155.193 85.7433L161.083 81.8334C161.411 81.6139 161.866 81.3406 162.456 80.9983L162.432 80.9268C161.718 81.0771 161.194 81.1724 160.86 81.2128L153.843 82.1047L153.131 80.1911L161.608 74.0257L161.614 74.0106Z" fill="white"/>
<path d="M166.515 88.9705L166.851 90.5721L156.973 92.6372L156.638 91.0356L166.515 88.9705Z" fill="white"/>
<path d="M166.26 96.0933L165.934 92.7571L167.339 92.6234L168.147 100.93L166.742 101.063L166.416 97.7272L157.778 98.5679L157.62 96.9416L166.257 96.1009L166.26 96.0933Z" fill="white"/>
<path d="M168.184 103.177L168.075 104.81L163.867 104.525L163.522 109.661L167.737 109.949L167.628 111.581L157.562 110.905L157.671 109.272L162.119 109.575L162.464 104.439L158.016 104.136L158.125 102.504L168.191 103.181L168.184 103.177Z" fill="white"/>
<path d="M167.027 114.487L166.718 116.09L156.813 114.173L157.122 112.57L167.027 114.487Z" fill="white"/>
<path d="M166.176 119.002L165.71 120.427L157.961 123.051C157.787 123.112 157.539 123.179 157.23 123.265L157.233 123.345L157.938 123.562L164.051 125.54L163.577 127.006L153.983 123.892L154.44 122.49L162.263 119.879C162.377 119.837 162.52 119.79 162.678 119.748C162.836 119.707 162.947 119.672 163.015 119.656L163.028 119.582L162.314 119.362L156.119 117.35L156.592 115.884L166.194 119.001L166.176 119.002Z" fill="white"/>
<path d="M143.427 154.095L139.427 156.895C138.564 157.497 137.75 157.721 136.98 157.575C136.21 157.429 135.539 156.952 134.987 156.163C134.427 155.37 134.223 154.572 134.359 153.762C134.499 152.964 134.987 152.263 135.836 151.673L138.463 149.84L136.317 146.768L137.652 145.83L143.435 154.098L143.427 154.095ZM136.681 152.785C136.26 153.081 136.013 153.448 135.951 153.882C135.889 154.315 136.019 154.756 136.336 155.212C136.653 155.668 137.019 155.94 137.425 156.026C137.831 156.112 138.258 155.995 138.711 155.685L141.292 153.878L139.264 150.969L136.684 152.777L136.681 152.785Z" fill="white"/>
<path d="M129.962 152.316C131.131 152.739 132.083 153.736 132.805 155.301C133.527 156.866 133.676 158.232 133.245 159.398C132.814 160.564 131.866 161.484 130.408 162.16C128.939 162.842 127.618 162.965 126.449 162.542C125.28 162.119 124.335 161.125 123.606 159.557C122.877 157.989 122.735 156.626 123.166 155.46C123.597 154.294 124.548 153.367 126.017 152.686C127.475 152.009 128.788 151.882 129.965 152.309L129.962 152.316ZM125.084 158.765L125.159 158.928C126.218 161.204 127.775 161.865 129.828 160.918C131.863 159.974 132.362 158.359 131.314 156.079L131.24 155.916C130.193 153.655 128.651 153 126.598 153.946C124.541 154.9 124.038 156.504 125.084 158.765Z" fill="white"/>
<path d="M124.015 164.921L122.333 165.304L119.006 159.042C118.886 158.817 118.668 158.357 118.346 157.653L118.278 157.669L118.336 159.193L118.359 166.2L116.237 166.686L113.184 160.359C113.054 160.094 112.846 159.63 112.563 158.959L112.495 158.975C112.51 159.74 112.505 160.25 112.496 160.511L112.234 167.587L110.699 167.933L111.231 157.463L113.224 157.013L116.326 163.369C116.5 163.722 116.714 164.215 116.974 164.833L117.042 164.816C116.986 164.088 116.964 163.558 116.968 163.224L117.006 156.154L118.999 155.704L124 164.915L124.015 164.921Z" fill="white"/>
<path d="M108.43 167.935L100.609 168.137L100.571 166.737L106.761 166.575L106.689 163.74L101.143 163.881L101.105 162.48L106.651 162.339L106.573 159.281L100.295 159.441L100.257 158.04L108.167 157.838L108.426 167.924L108.43 167.935Z" fill="white"/>
<path d="M97.7447 167.977L92.5169 167.206C91.4753 167.055 90.7311 166.673 90.2599 166.075C89.7917 165.469 89.6311 164.716 89.7597 163.815C89.8643 163.125 90.1031 162.561 90.4837 162.124C90.8643 161.688 91.3624 161.397 91.9749 161.258L90.3815 156.7L92.1463 156.96L93.6138 161.264L97.0025 161.762L97.5924 157.758L99.2087 157.993L97.7447 167.977ZM93.3033 162.611C92.7878 162.534 92.3623 162.625 92.0223 162.875C91.6823 163.125 91.4704 163.515 91.3973 164.041C91.3289 164.534 91.4113 164.938 91.6521 165.257C91.8929 165.575 92.2817 165.769 92.8336 165.844L96.3406 166.355L96.8178 163.125L93.3109 162.614L93.3033 162.611Z" fill="white"/>
<path d="M82.263 164.715L75.5445 162.101L76.049 160.798L81.2445 162.817L82.3245 160.036L77.6315 158.213L78.136 156.909L82.829 158.733L84.3857 154.717L85.9086 155.311L82.2523 164.719L82.263 164.715Z" fill="white"/>
<path d="M73.1651 160.946L68.631 158.235C67.7284 157.699 67.177 157.06 66.9844 156.32C66.7812 155.584 66.9241 154.821 67.3844 154.038C67.7417 153.443 68.1815 153.013 68.7037 152.749C69.2259 152.485 69.7924 152.416 70.42 152.522L70.6979 147.702L72.2234 148.615L71.9275 153.153L74.8742 154.91L76.9494 151.44L78.3479 152.274L73.1682 160.939L73.1651 160.946ZM71.113 154.286C70.667 154.016 70.2426 153.932 69.8261 154.045C69.4127 154.15 69.071 154.425 68.8055 154.882C68.5524 155.308 68.4664 155.714 68.5763 156.094C68.6862 156.475 68.9648 156.809 69.4411 157.091L72.4844 158.913L74.1639 156.112L71.1206 154.289L71.113 154.286Z" fill="white"/>
<path d="M68.644 147.501C68.7211 148.741 68.1956 150.01 67.0492 151.308C65.9028 152.606 64.7087 153.284 63.4714 153.354C62.2235 153.428 61.005 152.931 59.8008 151.858C58.589 150.782 57.9468 149.629 57.8621 148.386C57.7849 147.145 58.3105 145.877 59.4569 144.579C60.6002 143.289 61.7898 142.6 63.0346 142.533C64.2795 142.467 65.5086 142.959 66.7129 144.032C67.9202 145.097 68.5624 146.25 68.6395 147.49L68.644 147.501ZM60.7797 145.621L60.665 145.751C59.0141 147.637 59.0231 149.327 60.7179 150.82C62.3976 152.307 64.0727 152.116 65.7463 150.239L65.8609 150.109C67.5133 148.241 67.4905 146.564 65.7957 145.07C64.0965 143.566 62.4244 143.75 60.7721 145.618L60.7797 145.621Z" fill="white"/>
<path d="M54.2327 146.334L52.7442 144.377L56.6207 138.782C56.8657 138.441 57.2359 137.965 57.7391 137.358L57.706 137.309C56.9419 137.669 56.388 137.902 56.0413 138.017L49.6153 140.252L48.1585 138.326L56.2008 132.231L57.1881 133.533L51.9378 137.519L50.4607 138.567L50.5254 138.646C50.9363 138.461 51.2665 138.322 51.516 138.229L58.8451 135.726L59.7059 136.862L55.2905 143.217C55.2017 143.349 55.0486 143.551 54.8176 143.836L54.6234 144.075L54.6685 144.137L56.081 143.01L61.3312 139.024L62.2689 140.253L54.2266 146.349L54.2327 146.334Z" fill="white"/>
<path d="M44.6415 132.49L44.0264 130.881L49.765 126.715C49.9693 126.56 50.399 126.285 51.0451 125.869L51.0213 125.797L49.5172 126.067L42.5785 127.07L41.8022 125.033L47.6378 121.127C47.8817 120.962 48.3083 120.695 48.9359 120.324L48.9121 120.252C48.1586 120.369 47.6512 120.444 47.3931 120.472L40.3529 121.204L39.7962 119.733L50.237 118.798L50.967 120.71L45.1098 124.669C44.7822 124.888 44.3312 125.172 43.7493 125.517L43.7731 125.589C44.4904 125.431 45.0146 125.336 45.3411 125.292L52.3462 124.343L53.0762 126.255L44.6566 132.496L44.6415 132.49Z" fill="white"/>
<path d="M39.6128 117.584L39.2663 115.987L49.126 113.836L49.4725 115.433L39.6128 117.584Z" fill="white"/>
<path d="M39.7974 110.459L40.1496 113.797L38.7464 113.949L37.8701 105.659L39.2733 105.507L39.6255 108.845L48.2572 107.931L48.426 109.553L39.7943 110.467L39.7974 110.459Z" fill="white"/>
<path d="M37.8145 103.369L37.9129 101.741L42.1256 101.992L42.4267 96.8558L38.214 96.6046L38.3123 94.9768L48.3869 95.5687L48.2885 97.1965L43.8406 96.9376L43.5395 102.074L47.9874 102.333L47.8891 103.961L37.8145 103.369Z" fill="white"/>
<path d="M38.8818 92.0407L39.1757 90.4309L49.0967 92.2663L48.8027 93.8761L38.8818 92.0407Z" fill="white"/>
<path d="M39.689 87.5247L40.1397 86.0934L47.8691 83.4092C48.044 83.3481 48.2842 83.2783 48.6004 83.1953L48.5979 83.1149L47.889 82.9055L41.758 80.9727L42.2241 79.5036L51.8491 82.5421L51.4108 83.9431L43.6147 86.6177C43.4975 86.6671 43.3577 86.7072 43.1996 86.7487C43.0415 86.7902 42.9305 86.8244 42.8621 86.8406L42.8571 86.918L43.5735 87.1304L49.7908 89.0896L49.3247 90.5587L39.6997 87.5202L39.689 87.5247Z" fill="white"/>
</g>
<defs>
<clipPath id="clip0_734_4162">
<rect width="158" height="158" fill="white" transform="translate(0 146.373) scale(1.00033) rotate(-67.8357)"/>
</clipPath>
</defs>
</svg>
