<svg width="10" height="11" viewBox="0 0 10 11" fill="none" xmlns="http://www.w3.org/2000/svg">
<path d="M1.55466 0.000254729L6.7526 0.75355C7.86888 0.918681 8.67626 1.33564 9.17425 2.02407C9.67223 2.7125 9.84782 3.56202 9.69631 4.60394C9.54903 5.63418 9.12086 6.41769 8.42773 6.94701C7.73459 7.47632 6.82989 7.65841 5.73699 7.50172L2.32126 7.00861L1.73926 11L6.19048e-05 10.7487L1.55044 0.0119421L1.55466 0.000254729ZM5.88422 5.99582C6.43651 6.07628 6.89916 5.96584 7.26797 5.67618C7.63678 5.38651 7.86401 4.94004 7.94543 4.34846C8.03481 3.75314 7.94449 3.27133 7.68616 2.90722C7.42783 2.54312 7.00896 2.31265 6.42533 2.22749L3.07227 1.74379L2.52319 5.51586L5.87626 5.99956L5.88422 5.99582Z" fill="white"/>
</svg>
