<svg width="100" height="101" viewBox="0 0 100 101" fill="none" xmlns="http://www.w3.org/2000/svg">
<path d="M0 101C0 94.7985 0 88.5967 0 82.3949C0 76.1932 0 69.9914 0 63.7896C0 45.4796 2.21492 31.1565 6.64475 20.8202C11.3699 10.1886 19.9343 3.24856 32.3378 0L39.8685 11.0746C31.5995 14.6185 26.136 19.9343 23.4781 27.022C20.8202 33.8144 19.4913 43.8554 19.4913 57.1449H37.6536V101H0ZM59.8028 101C59.8028 94.7985 59.8028 88.5967 59.8028 82.3949C59.8028 76.1932 59.8028 69.9914 59.8028 63.7896C59.8028 45.4796 62.0177 31.1565 66.4475 20.8202C71.1727 10.1886 79.737 3.24856 92.1405 0L99.6713 11.0746C91.4022 14.6185 85.9388 19.9343 83.2809 27.022C80.623 33.8144 79.294 43.8554 79.294 57.1449H97.4563V101H59.8028Z" fill="#F47521"/>
</svg>
