<svg width="29" height="29" viewBox="0 0 29 29" fill="none" xmlns="http://www.w3.org/2000/svg">
<path d="M28.6008 25.0724L22.9542 19.4259C22.6994 19.171 21.2426 17.8631 20.8563 17.4768L21.0683 19.0294C22.6314 17.0302 23.5602 14.5156 23.5602 11.7801C23.5602 5.27273 18.2875 0 11.7801 0C5.27273 0 0 5.27273 0 11.7801C0 18.2875 5.27273 23.5602 11.7801 23.5602C14.5156 23.5602 17.0302 22.6314 19.0294 21.0683L17.4768 20.9529C17.7665 21.2426 19.171 22.6994 19.4259 22.9542L25.0724 28.6008C25.6048 29.1331 26.4656 29.1331 26.9923 28.6008L28.5951 26.998C29.1275 26.4656 29.1275 25.6048 28.6008 25.0724ZM11.7801 19.0294C7.77601 19.0294 4.53081 15.7899 4.53081 11.7801C4.53081 7.77601 7.77034 4.53081 11.7801 4.53081C15.7842 4.53081 19.0294 7.77034 19.0294 11.7801C19.0294 15.7842 15.7899 19.0294 11.7801 19.0294Z" fill="white"/>
</svg>
