<svg width="20" height="17" viewBox="0 0 20 17" fill="none" xmlns="http://www.w3.org/2000/svg">
<path d="M19.9999 1.92499C19.2649 2.25165 18.4732 2.47165 17.6432 2.57165C18.4916 2.06332 19.1399 1.25999 19.4482 0.301665C18.6549 0.771662 17.7766 1.11333 16.8416 1.29666C16.0949 0.498331 15.0266 0 13.8483 0C11.1983 0 9.25162 2.47165 9.84995 5.03831C6.44163 4.86664 3.41665 3.23332 1.39333 0.751662C0.318332 2.59499 0.836662 5.00831 2.66332 6.22997C1.99166 6.2083 1.35999 6.0233 0.806662 5.71663C0.761662 7.61662 2.12499 9.39495 4.09831 9.79161C3.52165 9.94828 2.88832 9.98494 2.24499 9.86161C2.76665 11.4916 4.28498 12.6766 6.0783 12.7099C4.34998 14.0633 2.17832 14.6683 0 14.4116C1.81666 15.5766 3.97164 16.2549 6.2883 16.2549C13.9083 16.2549 18.2116 9.81995 17.9516 4.04831C18.7549 3.47165 19.4499 2.74832 19.9999 1.92499Z" fill="#141414"/>
</svg>
