<svg width="12" height="12" viewBox="0 0 12 12" fill="none" xmlns="http://www.w3.org/2000/svg">
<path d="M10.26 0.000512658L11.7971 5.36807C12.0992 6.43835 12.0658 7.32257 11.6849 8.0359C11.304 8.74923 10.6543 9.23563 9.728 9.49877C9.01969 9.69773 8.36993 9.71648 7.77921 9.53572C7.18848 9.35495 6.69861 9.00276 6.29442 8.46717L2.59021 11.9817L2.07446 10.1718L5.5835 6.89209L4.5873 3.40847L0.473099 4.58622L-8.20215e-06 2.92812L10.26 0.000512658ZM7.02025 6.61835C7.17337 7.14775 7.44252 7.51769 7.83135 7.73598C8.22017 7.95428 8.6832 7.98503 9.22409 7.83605C9.73003 7.69394 10.0843 7.43214 10.2828 7.06215C10.4813 6.69216 10.4928 6.22866 10.3364 5.67213L9.30448 2.07168L5.98828 3.01791L7.02025 6.61835Z" fill="white"/>
</svg>
