<svg width="11" height="11" viewBox="0 0 11 11" fill="none" xmlns="http://www.w3.org/2000/svg">
<path d="M0.441698 8.11285C-0.134745 6.96467 -0.148807 5.54311 0.410753 3.85221C0.970312 2.16131 1.8262 1.02203 2.97797 0.453231C4.12614 -0.123212 5.4951 -0.149914 7.0772 0.376721C8.66694 0.899766 9.75363 1.74302 10.3301 2.8912C10.9065 4.03937 10.9206 5.46093 10.361 7.15183C9.80146 8.84273 8.94556 9.98203 7.79379 10.5508C6.64562 11.1273 5.27307 11.1463 3.68332 10.6233C2.10482 10.1043 1.02938 9.26508 0.445289 8.12049L0.441698 8.11285ZM8.68261 6.69842L8.73987 6.52218C9.5416 4.05484 8.84414 2.45009 6.62811 1.72638C4.42738 0.995491 2.90929 1.85763 2.07744 4.32046L2.02017 4.4967C1.20767 6.9411 1.91685 8.53101 4.12882 9.26596C6.35203 10.005 7.87371 9.15047 8.67497 6.70201L8.68261 6.69842Z" fill="white"/>
</svg>
