<svg width="13" height="14" viewBox="0 0 13 14" fill="none" xmlns="http://www.w3.org/2000/svg">
<path d="M4.44878 14.0005L0.948482 9.66715C0.249061 8.8059 -0.0542259 7.97754 0.00790786 7.17747C0.0778397 6.37374 0.492032 5.67485 1.23537 5.06886C1.80938 4.609 2.39789 4.34219 3.00458 4.27623C3.61126 4.21026 4.2054 4.34054 4.77918 4.67072L6.80211 -0.000352243L7.98383 1.46244L6.04507 5.84655L8.31509 8.65422L11.6339 5.97289L12.7185 7.30997L4.44878 14.0005ZM4.84165 6.66856C4.49767 6.24001 4.10263 6.00673 3.66065 5.95729C3.21868 5.90784 2.77561 6.05877 2.34292 6.41422C1.93775 6.74721 1.71275 7.11934 1.67158 7.53839C1.63041 7.95745 1.79328 8.38539 2.1675 8.83782L4.51997 11.74L7.19778 9.57856L4.84531 6.67636L4.84165 6.66856Z" fill="white"/>
</svg>
