<svg width="15" height="15" viewBox="0 0 15 15" fill="none" xmlns="http://www.w3.org/2000/svg">
<path d="M2.76699 0.000248376L4.30916 0.907922L2.37558 8.01465C2.30849 8.27122 2.14404 8.77982 1.88992 9.53685L1.95359 9.57259L2.99335 8.37167L7.95888 3.04861L9.91289 4.19429L7.73229 11.1544C7.64529 11.4485 7.46594 11.9453 7.20915 12.6567L7.27282 12.6925C7.80376 12.1056 8.16645 11.7196 8.36497 11.5232L13.5888 6.35082L15 7.17931L7.15403 14.7364L5.31968 13.6658L7.48272 6.64826C7.61002 6.26026 7.78622 5.73676 8.03032 5.07822L7.96664 5.04248C7.48495 5.63439 7.12901 6.05472 6.89113 6.30708L1.83434 11.6355L-8.98497e-06 10.5649L2.75477 0.0341226L2.76699 0.000248376Z" fill="white"/>
</svg>
