<svg width="40" height="64" viewBox="0 0 40 64" fill="none" xmlns="http://www.w3.org/2000/svg">
<path d="M1.10587 14.6849C0.372063 15.0295 0.00476106 15.668 -1.73231e-05 16.6115L1.75621 63.0149C1.82279 63.9158 2.22276 64.2032 2.95656 63.8587L14.3754 58.4971C15.1766 58.1209 15.5439 57.4824 15.4813 56.5705L14.9443 42.1919L14.9417 42.1474L14.3718 30.1511L14.3418 30.1651L14.0137 22.6154L13.3673 8.91864L1.10984 14.6739L1.10587 14.6849Z" fill="white"/>
<path d="M38.052 2.49995C38.6357 3.74292 38.9698 5.34979 39.0469 7.32406L39.5535 20.6843C39.6306 22.6586 39.5636 24.3259 39.3669 25.6976C39.1593 27.0654 38.7523 28.2617 38.1385 29.2901C37.5323 30.315 36.6734 31.23 35.5728 32.0392C34.4798 32.8449 33.0759 33.6502 31.3538 34.4589L16.6103 41.3814L16.0404 29.385L15.6898 21.8458L15.1247 9.95694C15.0741 8.85664 15.6839 7.83924 16.6798 7.37165L29.8134 1.20501C33.984 -0.753273 36.7341 -0.326467 38.0595 2.49643L38.052 2.49995Z" fill="white"/>
</svg>
