<svg width="12" height="12" viewBox="0 0 12 12" fill="none" xmlns="http://www.w3.org/2000/svg">
<path d="M12 1.1417L11.7174 3.78352L4.51563 5.32953C4.07058 5.42134 3.42374 5.52002 2.5831 5.62183L2.57363 5.68486C3.44028 5.97112 4.05157 6.19179 4.40327 6.3586L11.1213 9.35503L10.8477 11.9536L4.8902e-05 10.8083L0.181714 9.05346L7.26767 9.7976L9.21007 10.0669L9.22474 9.95264C8.76203 9.7989 8.39386 9.65935 8.12772 9.54999L0.495643 6.10405L0.655956 4.57406L8.83909 2.83088C9.0061 2.79152 9.2799 2.75084 9.67271 2.69332L9.994 2.64986L10.004 2.56708L8.05487 2.40829L0.968916 1.66415L1.14439 0.000135078L12 1.1417Z" fill="white"/>
</svg>
