<svg width="13" height="14" viewBox="0 0 13 14" fill="none" xmlns="http://www.w3.org/2000/svg">
<path d="M8.34446 0.000256972L11.8155 4.3674C12.5006 5.23751 12.8159 6.07148 12.7343 6.87249C12.6528 7.6735 12.2379 8.37363 11.4896 8.97287C10.9145 9.43355 10.3213 9.69301 9.70989 9.75128C9.09846 9.80955 8.50328 9.67904 7.93262 9.33681L5.86021 13.9996L4.69202 12.5268L6.67231 8.15522L4.41805 5.32377L1.07086 7.98226L-5.04517e-05 6.63549L8.34812 0.00806455L8.34446 0.000256972ZM7.893 7.34372C8.23759 7.77303 8.62553 8.01039 9.07196 8.06773C9.51471 8.11726 9.95856 7.96606 10.3957 7.61781C10.813 7.28837 11.0384 6.91558 11.0755 6.50726C11.1126 6.09895 10.9536 5.65877 10.598 5.20602L8.26899 2.2762L5.56762 4.42171L7.89667 7.35153L7.893 7.34372Z" fill="white"/>
</svg>
